
Titolo: Ney Matogrosso: Um Brasileiro (Interpreta Chico Buarque)

Artista: Ney Matogrosso

Genere: Musica Popular Brasileira

Sottogenere: Bossa com Samba

Data di uscita: 21 marzo 1996

Casa discografica: Polygram Brasil

Band:
Wilson das Neves
Bateria
Bruce Henry
Baixo Acústico e Elétrico
Ricardo Silveira
Guitarra e Violão
Zero
Percussão
Zé Nogueira
Sax
Marcio Montarroyos
Trompete
Leandro Braga
Arranjos e Piano
José Belmiro (Trambique)
Surdo, Reco-reco, Tamborim e Repique
Giancarlo Pareschi
Violino Spalla
José Alves, Alfredo Vidal, Ricardo Amado, Walter Hack, Paschoal Perrota, Bernardo Bressler, Michel Bressler e Carlos Eduardo Hack
Violinos
Marie Christine S. Bressler
Violino e Viola
Jesuína Noronha e Jairo Diniz
Viola
Marcio Eymard, Jaques Morelembaum e Jorge Kundert
Cellos

Participação Especial de Chico Buarque na faixa "Até o Fim"

Durata: 57:25

01. Construcao 5:20
02. Moto Contínuo 3:49
03. Cala A Boca Barbara 4:32
04. Mil Perdões 3:00
05. Valsinha 2:51
06. Minha História (Gesubambino) 3:24
07. Soneto 3:09
08. Roda Viva 3:50
09. Corrente 3:38
10. Bom Conselho 3:10
11. Partido Alto 3:52
12. Homenagem Ao Malandro 2:54
13. Até O Fim com Chico Buarque 3:19
14. Almanaque 3:32
15. Acalanto Para Helena 0:45
16. A Banda 3:10
17. Não Existe Pecado Ao Sul Do Equador 3:06

NEY MATOGROSSO
Il cantante Ney Matogrosso ha costruito una carriera di successo intorno al suo 
rendimento competente come personaggio sessualmente androgino, oltre alla sua voce di tenore estremamente ben tonica. L'associazione, con il repertorio di Chico Buarque sembra improbabile, il dibattito riguarda le questioni sociali, può sembrare strano, ma la sensibilità e l'intensità oltre la competenza artistica di Matogrosso rendono questo album un successo d'arte. Supportato da ottimi musicisti, e Buarque stesso coinvolto in "Até O Fim" Matogrosso versione "Construção", "Moto-continuo", "Minha Historia", "Roda Viva" e altri classici è stato un successo di vendite. 


Ney de Sousa Pereira, noto come Ney Matogrosso (Bela Vista, 1 agosto 1941) è un cantante brasiliano. La sua infanzia e adolescenza sono stati segnati dalla solitudine, fino a 17 anni, quando lasciò la sua casa di famiglia per entrare nelle Forze Aereonatiche Brasiliane. A quel tempo, non aveva idea di cosa fare della sua vita. Amava il teatro e a volte cantava. Ney Matogrosso è un nome che, come si suol dire in portoghese, dispensa apresentações, cioè non ha bisogno di presentazioni. È una leggenda vivente della música popular brasileira e al suo interno si è ritagliato uno spazio unico e peculiare. Sin dall'esordio, avvenuto all'inizio degli anni 70 come voce del gruppo Secos e molhados. Con la sua ambigua sensualità, i travestimenti audaci e un contralto quasi femminile, fu il simbolo di quel gruppo, che attraversò come una meteora il firmamento del rock brasiliano, divenendone uno dei più importanti riferimenti. All'immagine stravagante, inaccettabile per il conformismo dell'epoca, la band aggiungeva contenuti di rottura e di protesta, nemmeno troppo dissimulati, nei confronti della dittatura militare imperante in Brasile.
Artista di culto, da sempre coerente nel dichiarare la propria omosessualità, Matogrosso continuò, dopo la sua uscita dal gruppo, a essere apprezzato come solista, sia su disco che in occasione di roboanti performance dal vivo. Da vero maestro del trasformismo e consumato animale da palcoscenico, nella seconda metà degli anni 80 cambia pelle. Si reinventa interprete elegante, divenendo un crooner dalla voce particolarissima. Non rinuncia a provocare, ma è in grado di muoversi a proprio piacimento all'interno dell'opera dei grandi compositori brasiliani. Da Jobim e de Moraes a Villa-lobos, da Cartola a Caymmi, da Chico Buarque a Rita Lee, fino a Lenine e Samuel Rosa. Per lui una trentina di album e molte partecipazioni, con milioni di copie vendute e grandi successi come "Bandido corazón", "Da cor do pecado", "Bandoleiro", "Ando meio desligado", "Homem com h", "Por debaixo dos panos", "Balada do louco", "Não existe pecado ao sul do equador".

Exact Audio Copy V1.0 beta 1 from 15. November 2010

EAC extraction logfile from 4. July 2011, 0:59

Ney Matogrosso / Um Brasileiro

Used drive : HL-DT-STDVDRAM GSA-T40N Adapter: 0 ID: 0

Read mode : Secure
Utilize accurate stream : Yes
Defeat audio cache : No
Make use of C2 pointers : Yes

Read offset correction : 667
Overread into Lead-In and Lead-Out : No
Fill up missing offset samples with silence : Yes
Delete leading and trailing silent blocks : No
Null samples used in CRC calculations : No
Used interface : Native Win32 interface for Win NT & 2000

Used output format : User Defined Encoder
Selected bitrate : 768 kBit/s
Quality : High
Add ID3 tag : No
Command line compressor : c:\Users\leomarco\Contacts\Desktop\Exact Audio Copy\FLAC\FLAC.EXE
Additional command line options : -6 -V -T "ARTIST=%a" -T "TITLE=%t" -T "ALBUM=%g" -T "DATE=%y" -T "TRACKNUMBER=%n" -T "GENRE=%m" -T "COMMENT=%e" %j--picture="%i"%j %s -o %d


TOC of the extracted CD

Track | Start | Length | Start sector | End sector
---------------------------------------------------------
1 | 0:00.00 | 5:20.00 | 0 | 23999
2 | 5:20.00 | 3:48.67 | 24000 | 41166
3 | 9:08.67 | 4:31.60 | 41167 | 61551
4 | 13:40.52 | 2:59.53 | 61552 | 75029
5 | 16:40.30 | 2:50.62 | 75030 | 87841
6 | 19:31.17 | 3:23.68 | 87842 | 103134
7 | 22:55.10 | 3:09.15 | 103135 | 117324
8 | 26:04.25 | 3:50.12 | 117325 | 134586
9 | 29:54.37 | 3:37.50 | 134587 | 150911
10 | 33:32.12 | 3:10.30 | 150912 | 165191
11 | 36:42.42 | 3:51.53 | 165192 | 182569
12 | 40:34.20 | 2:54.35 | 182570 | 195654
13 | 43:28.55 | 3:19.25 | 195655 | 210604
14 | 46:48.05 | 3:32.35 | 210605 | 226539
15 | 50:20.40 | 0:44.62 | 226540 | 229901
16 | 51:05.27 | 3:10.15 | 229902 | 244166
17 | 54:15.42 | 3:08.08 | 244167 | 258274


Range status and errors

Selected range

Filename C:\Users\leomarco\Contacts\Desktop\Ney Matogrosso - Um Brasileiro.flac

Peak level 100.0 %
Extraction speed 0.7 X
Range quality 100.0 %
Test CRC AE85C5D8
Copy CRC AE85C5D8
Copy OK

No errors occurred

End of status report

==== Log checksum B4085C4D70E891C0D08F202B753B296FE119E8A75D1CE76D087F29BB666F873C ====